<?xml version="1.0" encoding="utf-8"?>
<!-- Generator: Adobe Illustrator 25.0.0, SVG Export Plug-In . SVG Version: 6.00 Build 0)  -->
<svg version="1.1" id="Layer_1" xmlns="http://www.w3.org/2000/svg" xmlns:xlink="http://www.w3.org/1999/xlink" x="0px" y="0px"
	 viewBox="0 0 300 300" style="enable-background:new 0 0 300 300;" xml:space="preserve">
<style type="text/css">
	.st0{fill:#C22038;}
</style>
<g>
	<path id="XMLID_1_" class="st0" d="M205.7,4.7c-7.3,0.4-15.2,2.6-23.5,6.7c-8.3,4.1-15.1,9.2-20.5,15.4
		C150.8,39,144.7,54,144.7,67.9c0,1.9,0.1,3.7,0.3,5.5c16.8,1.3,32.3-7.3,45-22.2C200.6,38.6,206,25.1,206,10.5
		C206,8.6,205.8,6.6,205.7,4.7z"/>
	<path class="st0" d="M276.8,178.9c-1.4,11.5-4.1,23.3-8.2,35.3c-0.4,1.2-0.8,2.3-1.3,3.5c-1.8,4.7-3.4,9.2-5.3,13.5
		c-4.4,10.2-9.6,19.5-15.6,28.1c-8.2,11.7-15,19.8-20.1,24.4c-8,7.4-16.6,11.1-25.9,11.4c-6.6,0-14.6-1.9-23.9-5.7
		c-9.3-3.8-17.9-5.7-25.7-5.7c-8.2,0-17.1,1.9-26.5,5.7c-9.5,3.8-17,5.8-22.9,6c-8.8,0.4-17.7-3.5-26.4-11.7
		c-4.6-4-10-10.2-16.4-18.8c36.4-23.5,84.7-34.1,135.1-23.1c7.6,1.7,14.6-1.5,15.5-7.9c0.1-0.4,0.1-0.8,0.1-1.2
		c0-6-6.1-12.4-14.1-14c-55.3-11-108.5,0.9-149.3,27.3c-4.9-8.6-9.3-17.9-13-28.1c-0.4-1.2-0.9-2.3-1.3-3.5
		c-6.2-18.2-9.3-35.7-9.3-52.7c0-19.5,4.2-36.3,12.7-50.3c1.8-3,3.7-5.9,5.8-8.5c5.7-7.4,12.6-13.4,20.7-18.2
		c11.1-6.5,22.9-9.9,35.8-10.1c7,0,16.3,2.1,27.7,6.4c11.4,4.3,18.7,6.5,22,6.5c2.4,0,10.5-2.5,24.4-7.6c13.1-4.7,24.1-6.6,33.1-5.9
		c24.5,2,42.9,11.6,55,29c0,0,0,0,0,0c2.1,2.7,4,5.5,5.7,8.5c7.3,12,11.4,26.1,12.4,42.2c-42.7-21.9-94.8-29.4-147.4-16.7
		c-7.4,1.8-12.8,7.8-12.8,13.5c0,0.6,0.1,1.3,0.2,1.9c1.3,6.2,8.5,9.2,15.8,7.3C185.6,146.2,236.9,155.3,276.8,178.9z"/>
</g>
</svg>
