<?xml version="1.0" standalone="no"?>
<!DOCTYPE svg PUBLIC "-//W3C//DTD SVG 20010904//EN"
 "http://www.w3.org/TR/2001/REC-SVG-20010904/DTD/svg10.dtd">
<svg version="1.0" xmlns="http://www.w3.org/2000/svg"
 width="701.000000pt" height="701.000000pt" viewBox="0 0 701.000000 701.000000"
 preserveAspectRatio="xMidYMid meet">
<metadata>
Created by potrace 1.14, written by Peter Selinger 2001-2017
</metadata>
<g transform="translate(0.000000,701.000000) scale(0.100000,-0.100000)"
fill="#000000" stroke="none">
<path d="M4885 6995 c-38 -7 -97 -21 -130 -31 -33 -10 -64 -19 -70 -20 -27 -5
-177 -70 -249 -106 -218 -112 -371 -235 -529 -427 -50 -62 -207 -309 -207
-327 0 -4 -21 -55 -50 -119 -10 -23 -49 -150 -56 -180 -2 -11 -6 -31 -9 -45
-18 -86 -27 -176 -25 -270 1 -109 1 -110 25 -116 22 -5 176 1 233 10 42 7 180
43 207 55 108 48 192 93 259 139 218 147 416 362 552 597 36 62 77 141 79 155
1 3 9 23 19 45 29 68 74 229 81 295 2 19 7 60 10 90 6 51 9 163 5 185 -1 6 -2
27 -2 48 0 36 -1 37 -37 36 -20 -1 -67 -7 -106 -14z"/>
<path d="M2248 5335 c-2 -2 -26 -6 -53 -9 -28 -3 -72 -9 -100 -12 -82 -9 -194
-34 -280 -62 -44 -14 -82 -27 -85 -27 -57 -19 -239 -108 -305 -150 -22 -14
-50 -30 -62 -37 -13 -6 -23 -15 -23 -20 0 -4 -5 -8 -11 -8 -34 0 -271 -221
-371 -346 -92 -116 -248 -371 -248 -406 0 -6 -7 -19 -15 -28 -8 -9 -16 -25
-18 -36 -2 -10 -10 -35 -19 -54 -13 -30 -40 -105 -43 -120 -1 -3 -7 -25 -15
-50 -18 -60 -18 -61 -25 -94 -3 -15 -12 -56 -20 -90 -8 -33 -17 -86 -21 -116
-3 -30 -8 -58 -10 -61 -18 -31 -26 -559 -10 -694 4 -38 9 -88 12 -110 2 -22 6
-51 8 -65 3 -14 8 -43 11 -65 3 -23 8 -52 10 -65 3 -14 8 -40 11 -59 8 -50 13
-71 18 -89 3 -9 7 -28 10 -42 3 -14 8 -36 11 -50 4 -14 8 -34 10 -45 2 -11 16
-60 30 -110 15 -49 28 -97 30 -105 4 -19 88 -260 113 -325 86 -218 226 -515
244 -515 12 0 72 41 76 52 2 4 7 8 12 8 4 0 35 18 68 40 33 22 64 40 70 40 6
0 12 4 14 9 6 17 350 187 493 244 228 90 533 183 725 221 14 3 36 8 50 11 14
3 39 8 55 10 17 3 66 12 110 21 45 8 94 16 110 18 17 2 66 9 110 15 44 6 107
13 140 16 33 3 77 8 97 10 134 16 504 22 653 10 159 -12 255 -21 300 -28 17
-3 64 -11 105 -17 41 -7 102 -18 135 -26 33 -7 71 -15 85 -18 14 -2 57 -13 95
-24 219 -62 281 -97 316 -176 26 -61 43 -162 28 -172 -5 -3 -6 -11 -3 -19 8
-19 -30 -95 -60 -124 -31 -29 -79 -29 -176 -1 -102 30 -140 39 -140 34 0 -3
-8 -1 -17 5 -10 5 -36 11 -58 15 -22 3 -51 8 -65 11 -94 19 -124 24 -189 31
-30 3 -63 7 -73 9 -137 27 -714 26 -938 0 -19 -3 -57 -7 -85 -9 -27 -3 -63 -7
-80 -10 -25 -4 -97 -16 -260 -41 -49 -8 -89 -16 -96 -20 -4 -3 -22 -7 -40 -10
-19 -2 -44 -7 -56 -10 -13 -3 -31 -7 -40 -9 -10 -2 -31 -7 -48 -11 -210 -49
-519 -152 -700 -231 -22 -10 -43 -17 -47 -16 -5 1 -8 -2 -8 -6 0 -4 -24 -16
-52 -27 -29 -10 -55 -21 -58 -25 -3 -3 -27 -17 -55 -30 -66 -31 -253 -139
-261 -151 -5 -8 43 -80 59 -87 4 -2 7 -8 7 -13 0 -9 106 -147 193 -253 18 -21
39 -48 47 -58 24 -31 193 -200 236 -236 115 -98 256 -179 379 -218 45 -14 91
-18 185 -18 69 0 139 3 155 7 17 4 44 10 60 12 17 3 48 11 70 17 22 6 42 12
45 13 37 10 103 33 239 84 188 71 341 113 461 128 66 8 127 8 195 -1 50 -6 55
-7 110 -20 17 -4 50 -12 75 -18 25 -5 52 -12 60 -15 20 -8 30 -11 57 -17 12
-2 37 -11 55 -19 146 -64 376 -139 498 -162 72 -14 254 -14 310 -1 108 27 188
62 272 118 31 21 59 38 62 38 4 0 14 8 24 18 10 9 39 34 64 54 145 120 366
378 549 643 19 27 38 54 42 60 26 32 120 184 129 208 5 15 14 27 18 27 11 0
201 385 240 485 17 44 35 89 40 100 16 33 51 126 71 190 29 86 70 217 74 235
2 8 15 58 29 110 28 108 56 239 61 288 2 18 6 36 9 40 3 5 8 31 11 58 3 27 7
67 10 89 2 22 7 50 9 63 4 19 -6 30 -64 68 -38 24 -73 44 -79 44 -6 0 -11 3
-11 8 0 4 -10 12 -23 18 -12 6 -76 38 -142 72 -234 119 -618 260 -808 297 -9
2 -21 6 -26 10 -5 3 -22 7 -38 10 -15 2 -50 9 -78 15 -27 6 -61 13 -75 16 -14
2 -38 7 -55 11 -16 3 -39 8 -50 10 -11 2 -27 4 -35 6 -8 2 -37 7 -65 11 -27 4
-61 10 -75 12 -43 8 -165 23 -240 29 -30 3 -86 8 -125 12 -38 3 -198 6 -355 7
-358 0 -485 -9 -745 -55 -71 -13 -91 -17 -125 -24 -14 -4 -34 -8 -45 -10 -49
-11 -64 -15 -120 -30 -33 -9 -91 -27 -130 -40 -92 -31 -121 -36 -153 -24 -52
20 -88 75 -101 155 -19 122 35 246 126 289 93 44 413 140 538 160 17 3 41 7
55 10 14 3 40 7 58 10 17 3 47 8 65 11 51 9 103 15 302 32 225 19 668 5 930
-28 131 -17 145 -19 260 -40 107 -19 133 -24 185 -36 14 -3 39 -7 55 -10 17
-3 37 -7 45 -10 8 -3 26 -8 40 -10 32 -7 191 -51 250 -71 25 -8 52 -16 60 -18
8 -2 60 -20 115 -40 55 -20 114 -41 130 -47 17 -6 35 -14 40 -18 6 -4 21 -11
35 -15 38 -12 271 -125 303 -147 15 -11 27 -17 27 -14 0 3 25 -10 55 -29 30
-19 59 -35 65 -35 5 0 10 -4 10 -9 0 -5 7 -11 15 -14 17 -7 15 44 -9 238 -3
21 -19 126 -21 135 -1 3 -4 19 -8 35 -4 17 -9 39 -11 50 -10 53 -60 218 -83
275 -4 8 -7 17 -8 20 -11 31 -27 65 -87 188 -39 78 -75 142 -79 142 -5 0 -9 5
-9 11 0 10 -57 99 -70 109 -3 3 -21 27 -39 53 -35 52 -206 228 -281 290 -160
133 -467 295 -630 332 -309 70 -414 78 -630 49 -130 -17 -372 -90 -625 -189
-50 -19 -134 -46 -155 -49 -3 -1 -18 -7 -35 -13 -110 -44 -249 -51 -349 -18
-23 7 -84 27 -136 43 -92 29 -244 83 -285 101 -34 15 -206 69 -285 90 -104 27
-174 40 -248 45 -34 3 -66 7 -70 10 -4 3 -14 1 -22 -4 -7 -4 -23 -4 -36 0 -12
5 -24 7 -26 5z"/>
</g>
</svg>
