<?xml version="1.0" encoding="utf-8"?>
<!-- Generator: Adobe Illustrator 25.0.0, SVG Export Plug-In . SVG Version: 6.00 Build 0)  -->
<svg version="1.1" id="Layer_1" xmlns="http://www.w3.org/2000/svg" xmlns:xlink="http://www.w3.org/1999/xlink" x="0px" y="0px"
	 viewBox="0 0 1410 251" style="enable-background:new 0 0 1410 251;" xml:space="preserve">
<style type="text/css">
	.st0{fill:#C22038;}
	.st1{fill:#28282C;}
</style>
<g>
	<path class="st0" d="M753.9,40.1C763,29.3,767.6,17.6,767.6,5l0,0c0-1.7-0.1-3.3-0.3-5C761,0.3,754.2,2.3,747,5.7
		c-7.2,3.5-13.1,8-17.7,13.3c-9.3,10.5-14.6,23.4-14.6,35.5c0,1.7,0.1,3.3,0.3,4.8C729.5,60.5,742.8,53,753.9,40.1z"/>
	<g>
		<path class="st0" d="M756.5,127c-32.2-3.9-54.4,1.6-65.4,5.5c-3.8,1.4-7.1-3-6.4-8.7v0c0.4-3.4,2.2-6.3,4.5-7.2
			c8.8-3.7,32.6-11.5,69.5-7.1c31.4,3.8,51.5,14,61.5,20.5c-0.7-14.5-4.3-27.2-10.8-38c-5.7-9.8-13.3-17.5-22.9-23.1
			c-9.5-5.7-19.8-8.5-30.9-8.7c-6.1,0-14,1.9-23.9,5.6c-9.8,3.7-16.1,5.6-18.9,5.6c-2.8,0-9.1-1.9-18.9-5.6
			c-9.9-3.7-17.8-5.6-23.9-5.6c-11.1,0.2-21.4,3.1-30.9,8.7c-9.5,5.7-17.1,13.4-22.9,23.1c-7.3,12.2-10.9,26.7-10.9,43.5
			c0,14.7,2.7,29.9,8.1,45.5c3.1,9,6.7,17.3,10.9,24.9c8.5-6.4,29-19,63.5-24.4c36.7-5.7,60.8,1.2,69.7,4.6c2.3,0.9,4.2,3.7,4.7,7v0
			c0.9,5.6-2.3,10-6.2,8.8c-11.1-3.5-33.5-8.2-65.6-3.2c-28.4,4.4-47.3,13.7-57.8,20.5c7.3,10.3,13.3,17.5,18.2,21.7
			c7.6,7.1,15.2,10.4,22.8,10.1c5-0.2,11.6-1.9,19.7-5.2c6.9-2.8,13.3-4.4,19.4-4.8c6.1,0.4,12.6,2,19.4,4.8
			c8.2,3.3,14.7,5,19.7,5.2c7.6,0.3,15.2-3,22.8-10.1c4.8-4.2,10.9-11.5,18.2-21.8c7.8-11,14.2-23.7,19.2-38.2
			c3.8-11.1,6.3-22,7.4-32.6c-0.3-0.1-0.6-0.2-0.8-0.4C809,141.5,788.7,130.9,756.5,127z"/>
	</g>
</g>
<g>
	<path class="st1" d="M150,82.4l-52.9,94c-0.7,1.1-2.1,1.4-3.2,0.7c-0.3-0.2-0.5-0.4-0.7-0.7l-52.8-94H0l77.7,138.2V251h35v-30.4
		l77.6-138.2H150z"/>
	<path class="st1" d="M296.8,82.2c-53.4,0-89.4,33.9-89.4,84.4s35.9,84.4,89.4,84.4c22.3,0,42.3-6,57.7-17.5l4.6,17.5h27v-84.4
		C386.1,116.1,350.2,82.2,296.8,82.2z M350.9,165.1c0,30.3-19.9,48.4-53.3,48.4s-53.3-18.1-53.3-48.4s19.8-48.4,53.3-48.4
		S350.8,134.8,350.9,165.1L350.9,165.1z"/>
	<path class="st1" d="M446.5,96.7c15.6-9.8,33.6-14.8,51.9-14.4c52,0,87,33.9,87,84.4s-34.9,84.4-87,84.4c-51,0-85.7-32.8-86.9-81.8
		l-0.1-120.5h35.1V96.7z M499.2,214.9c33.4,0,53.3-18.1,53.3-48.4s-19.9-48.4-53.3-48.4s-53.3,18.1-53.3,48.4
		S465.8,214.9,499.2,214.9z"/>
</g>
<g>
	<path class="st1" d="M1320.7,82.2c-53.4,0-89.4,33.9-89.4,84.4s35.9,84.4,89.4,84.4c22.3,0,42.3-6,57.7-17.5l4.6,17.5h27v-84.4
		C1409.9,116.1,1374,82.2,1320.7,82.2z M1374.7,165.1c0,30.3-19.9,48.4-53.3,48.4c-33.4,0-53.3-18.1-53.3-48.4s19.8-48.4,53.3-48.4
		C1354.9,116.7,1374.7,134.8,1374.7,165.1L1374.7,165.1z"/>
	<g>
		<path class="st1" d="M929.5,82C880,82,840,119.8,840,166.5S880,251,929.5,251s89.5-37.8,89.5-84.5S978.9,82,929.5,82z
			 M929.5,216.2c-29,0-52.5-22.2-52.5-49.6c0-27.4,23.5-49.6,52.5-49.6s52.5,22.2,52.5,49.6C982,194,958.4,216.2,929.5,216.2z"/>
	</g>
	<path class="st1" d="M1141.6,138.9l69.8-56.3h-49.7l-86.4,65l0,0l0,0V46.4h-36.6v169.3l0,0c0,0.4,0,0.9,0,1.3v33.6h36.2V217
		c0-11.8,0.9-21.4,6.5-29.2l9.6-7.9c7.4-3.5,17.9-5.7,34-5.7c46.2,0,50.2,17.4,50.2,43.2V251h36.2v-33.6
		C1211,169,1188.3,143.7,1141.6,138.9z"/>
</g>
</svg>
