<?xml version="1.0" encoding="utf-8"?>
<!-- Generator: Adobe Illustrator 25.0.0, SVG Export Plug-In . SVG Version: 6.00 Build 0)  -->
<svg version="1.1" id="Layer_1" xmlns="http://www.w3.org/2000/svg" xmlns:xlink="http://www.w3.org/1999/xlink" x="0px" y="0px"
	 viewBox="0 0 589.9 121.9" style="enable-background:new 0 0 589.9 121.9;" xml:space="preserve">
<style type="text/css">
	.st0{fill:#010101;}
	.st1{fill:#C22038;}
</style>
<path class="st0" d="M29.3,111.9H16.1l14.1-22.3L0,41.6h13.1l23.7,38.5l23.6-38.5h13.2L29.3,111.9z"/>
<path class="st0" d="M113.4,111.9c-10.1,0-18.4-3.5-24.9-10.4c-6.5-6.9-9.8-15.4-9.8-25.4c0-10,3.3-18.5,9.8-25.4
	c6.5-6.9,14.8-10.4,24.9-10.4c9.5,0,16.9,3,22.5,9v-7.6h11.8v68.9h-11.8V103C130.3,108.9,122.8,111.9,113.4,111.9z M114.4,101
	c9.6,0,16.8-3.8,21.5-11.4V62.4c-4.7-7.5-11.8-11.3-21.5-11.3c-6.8,0-12.4,2.4-16.8,7.2c-4.4,4.8-6.6,10.7-6.6,17.7
	c0,7,2.2,12.9,6.6,17.7C102,98.6,107.6,101,114.4,101z"/>
<path class="st0" d="M204.3,111.9c-9.3,0-16.8-3-22.5-9v7.6H170V10h11.8v39.3c5.7-6,13.2-9,22.5-9c10.1,0,18.4,3.5,24.9,10.4
	c6.5,6.9,9.8,15.4,9.8,25.4c0,10-3.3,18.5-9.8,25.4C222.7,108.4,214.4,111.9,204.3,111.9z M203.4,101c6.8,0,12.4-2.4,16.8-7.2
	c4.4-4.8,6.6-10.7,6.6-17.7c0-7-2.2-12.9-6.6-17.7c-4.4-4.8-10-7.2-16.8-7.2c-9.6,0-16.8,3.8-21.5,11.3v27.1
	C186.5,97.2,193.7,101,203.4,101z"/>
<path class="st0" d="M403.5,111.9c-10.4,0-19-3.5-25.8-10.4c-6.8-6.9-10.3-15.4-10.3-25.4c0-10,3.4-18.5,10.3-25.4
	c6.8-6.9,15.5-10.4,25.8-10.4c10.3,0,18.9,3.5,25.7,10.4c6.8,6.9,10.3,15.4,10.3,25.4c0,10-3.4,18.5-10.3,25.4
	C422.4,108.4,413.8,111.9,403.5,111.9z M386.2,93.7c4.5,4.8,10.2,7.2,17.3,7.2c7.1,0,12.8-2.4,17.2-7.2c4.4-4.8,6.6-10.7,6.6-17.6
	c0-7-2.2-12.9-6.6-17.6c-4.4-4.8-10.2-7.2-17.2-7.2c-7.1,0-12.8,2.4-17.3,7.2c-4.5,4.8-6.7,10.7-6.7,17.6
	C379.6,83.1,381.8,88.9,386.2,93.7z"/>
<path class="st0" d="M505.6,110.5l-37.3-34.4v34.4h-11.8V10h11.8v58.6l30-26.9H514l-33.9,30.4l41.5,38.4H505.6z"/>
<path class="st0" d="M555.6,111.9c-10.1,0-18.4-3.5-24.9-10.4c-6.5-6.9-9.8-15.4-9.8-25.4c0-10,3.3-18.5,9.8-25.4
	c6.5-6.9,14.8-10.4,24.9-10.4c9.5,0,16.9,3,22.5,9v-7.6h11.8v68.9h-11.8V103C572.6,108.9,565.1,111.9,555.6,111.9z M556.6,101
	c9.6,0,16.8-3.8,21.5-11.4V62.4c-4.7-7.5-11.8-11.3-21.5-11.3c-6.8,0-12.4,2.4-16.8,7.2s-6.6,10.7-6.6,17.7c0,7,2.2,12.9,6.6,17.7
	C544.2,98.6,549.8,101,556.6,101z"/>
<path class="st1" d="M322.8,20.1c4.4-5.2,6.6-10.8,6.6-16.8v0c0-0.8,0-1.6-0.1-2.4c-3,0.2-6.3,1.1-9.7,2.8c-3.4,1.7-6.3,3.8-8.5,6.4
	c-4.5,5-7,11.2-7,17c0,0.8,0.1,1.6,0.1,2.3C311.2,29.9,317.6,26.3,322.8,20.1z"/>
<g>
	<path class="st1" d="M324.1,61.7c-15.4-1.9-26,0.8-31.3,2.6c-1.8,0.7-3.4-1.5-3.1-4.2v0c0.2-1.6,1-3,2.1-3.5
		c4.2-1.8,15.6-5.5,33.3-3.4c15,1.8,24.6,6.7,29.4,9.8c-0.3-6.9-2.1-13-5.2-18.2c-2.7-4.7-6.4-8.4-10.9-11.1
		c-4.6-2.7-9.5-4.1-14.8-4.2c-2.9,0-6.7,0.9-11.4,2.7c-4.7,1.8-7.7,2.7-9.1,2.7c-1.3,0-4.4-0.9-9.1-2.7c-4.7-1.8-8.5-2.7-11.4-2.7
		c-5.3,0.1-10.2,1.5-14.8,4.2c-4.6,2.7-8.2,6.4-10.9,11.1c-3.5,5.8-5.2,12.8-5.2,20.8c0,7,1.3,14.3,3.9,21.8
		c1.5,4.3,3.2,8.3,5.2,11.9c4.1-3.1,13.9-9.1,30.4-11.7c17.6-2.7,29.1,0.6,33.3,2.2c1.1,0.4,2,1.8,2.3,3.4v0
		c0.4,2.7-1.1,4.8-2.9,4.2c-5.3-1.7-16-3.9-31.4-1.5c-13.6,2.1-22.6,6.6-27.7,9.8c3.5,4.9,6.4,8.4,8.7,10.4c3.6,3.4,7.3,5,10.9,4.8
		c2.4-0.1,5.5-0.9,9.4-2.5c3.3-1.3,6.4-2.1,9.3-2.3c2.9,0.2,6,1,9.3,2.3c3.9,1.6,7,2.4,9.4,2.5c3.7,0.2,7.3-1.5,10.9-4.8
		c2.3-2,5.2-5.5,8.7-10.4c3.7-5.2,6.8-11.3,9.2-18.3c1.8-5.3,3-10.5,3.5-15.6c-0.1-0.1-0.3-0.1-0.4-0.2
		C349.2,68.6,339.5,63.5,324.1,61.7z"/>
</g>
</svg>
