<?xml version="1.0" encoding="utf-8"?>
<!-- Generator: Adobe Illustrator 25.0.0, SVG Export Plug-In . SVG Version: 6.00 Build 0)  -->
<svg version="1.1" id="Layer_1" xmlns="http://www.w3.org/2000/svg" xmlns:xlink="http://www.w3.org/1999/xlink" x="0px" y="0px"
	 viewBox="0 0 1062 1062" style="enable-background:new 0 0 1062 1062;" xml:space="preserve">
<style type="text/css">
	.st0{fill:#FFFFFF;}
	.st1{fill:#C22239;}
</style>
<g>
	<image style="overflow:visible;opacity:0.35;" width="1062" height="1062" xlink:href="46C6127BAC636A23.png" >
	</image>
	<g>
		<circle class="st0" cx="530.9" cy="520.7" r="458.7"/>
	</g>
</g>
<g>
	<path class="st1" d="M645.9,282.4c25.5-30.3,38.3-63,38.3-98.1l0,0c0-4.6-0.2-9.4-0.7-14c-17.8,0.9-36.7,6.3-56.6,16
		c-20,9.9-36.5,22.2-49.5,37.2c-26,29.5-40.7,65.4-40.7,99.1c0,4.6,0.3,9.1,0.8,13.3C577.9,339.3,615.1,318.5,645.9,282.4z"/>
	<g>
		<path class="st1" d="M653.3,524.8c-89.8-10.8-151.9,4.4-182.6,15.4c-10.8,3.8-19.8-8.5-18-24.2l0,0c1.1-9.5,6.1-17.5,12.5-20.2
			c24.6-10.4,91.1-32.3,194-19.7c87.7,10.6,143.7,39.1,171.6,57.1c-1.9-40.5-12-75.9-30.1-106.1c-15.9-27.2-37.3-48.7-63.9-64.5
			c-26.6-15.8-55.3-23.8-86.3-24.4c-17,0-39.1,5.3-66.7,15.6c-27.4,10.3-45,15.5-52.8,15.6c-7.8,0-25.4-5.3-52.8-15.6
			c-27.6-10.3-49.8-15.6-66.7-15.6c-31,0.6-59.7,8.5-86.3,24.4c-26.6,15.8-47.8,37.3-63.9,64.5c-20.2,33.8-30.4,74.3-30.4,121.3
			c0,41,7.5,83.3,22.5,127.1c8.7,25,18.8,48.2,30.5,69.4c23.8-17.9,81-53,177.3-68c102.4-15.9,169.6,3.4,194.4,12.9
			c6.5,2.4,11.7,10.2,13.2,19.6l0,0c2.4,15.5-6.3,28.1-17.1,24.7c-31-9.8-93.5-22.8-182.9-8.9c-79.2,12.3-132,38.3-161.4,57.1
			c20.3,28.6,37.2,48.8,50.7,60.6c21.2,19.7,42.4,29.1,63.8,28.2c14-0.5,32.3-5.3,55.1-14.5c19.1-7.7,37.2-12.1,54.3-13.3
			c17.1,1.2,35.1,5.7,54.3,13.3c22.8,9.2,41.1,14,55.1,14.5c21.3,0.9,42.5-8.4,63.8-28.2c13.5-11.8,30.5-32.1,50.8-60.7
			C777.1,751.6,795,716,809,675.6c10.7-31,17.5-61.4,20.6-91c-0.7-0.3-1.6-0.6-2.3-1.2C799.9,565.3,743.2,535.7,653.3,524.8z"/>
	</g>
</g>
</svg>
