<?xml version="1.0" encoding="utf-8"?>
<!-- Generator: Adobe Illustrator 25.0.0, SVG Export Plug-In . SVG Version: 6.00 Build 0)  -->
<svg version="1.1" id="Layer_1" xmlns="http://www.w3.org/2000/svg" xmlns:xlink="http://www.w3.org/1999/xlink" x="0px" y="0px"
	 viewBox="0 0 809.3 147.4" style="enable-background:new 0 0 809.3 147.4;" xml:space="preserve">
<style type="text/css">
	.st0{fill:#C22038;}
	.st1{fill:none;stroke:#C22038;stroke-width:0.3191;stroke-miterlimit:10;}
</style>
<g>
	<path id="XMLID_3_" class="st0" d="M92.9,0C89.2,0.2,85.2,1.3,81,3.4c-4.2,2.1-7.7,4.7-10.4,7.8C65.1,17.4,62,25,62,32.1
		c0,1,0,1.9,0.2,2.8c8.5,0.7,16.4-3.7,22.8-11.3c5.4-6.4,8.1-13.2,8.1-20.6C93.1,2,93,1,92.9,0z"/>
	<path class="st0" d="M129,88.4c-0.7,5.8-2.1,11.8-4.2,17.9c-0.2,0.6-0.4,1.2-0.6,1.8c-0.9,2.4-1.7,4.6-2.7,6.8
		c-2.2,5.2-4.9,9.9-7.9,14.3c-4.2,5.9-7.6,10.1-10.2,12.4c-4.1,3.8-8.4,5.6-13.1,5.8c-3.4,0-7.4-1-12.1-2.9c-4.7-1.9-9.1-2.9-13-2.9
		c-4.2,0-8.7,1-13.4,2.9c-4.8,1.9-8.6,2.9-11.6,3c-4.5,0.2-9-1.8-13.4-5.9c-2.3-2-5.1-5.2-8.3-9.5c18.5-11.9,42.9-17.3,68.5-11.7
		c3.8,0.8,7.4-0.8,7.9-4c0-0.2,0-0.4,0-0.6c0-3.1-3.1-6.3-7.2-7.1c-28-5.6-55,0.4-75.7,13.8c-2.5-4.4-4.7-9.1-6.6-14.2
		c-0.2-0.6-0.4-1.2-0.6-1.8C1.6,97.1,0,88.2,0,79.5C0,69.6,2.1,61.1,6.4,54c0.9-1.5,1.9-3,2.9-4.3c2.9-3.7,6.4-6.8,10.5-9.2
		c5.6-3.3,11.6-5,18.1-5.1c3.5,0,8.2,1.1,14.1,3.3c5.8,2.2,9.5,3.3,11.1,3.3c1.2,0,5.3-1.3,12.4-3.9c6.6-2.4,12.2-3.4,16.8-3
		c12.4,1,21.7,5.9,27.9,14.7c0,0,0,0,0,0c1,1.4,2,2.8,2.9,4.3c3.7,6.1,5.8,13.3,6.3,21.4C107.8,64.3,81.4,60.5,54.7,67
		c-3.8,0.9-6.5,4-6.5,6.9c0,0.3,0,0.6,0.1,1c0.7,3.2,4.3,4.7,8,3.7C82.7,71.8,108.8,76.4,129,88.4z"/>
</g>
<g>
	<polygon class="st1" points="245,48 216.9,98.9 206.8,117.1 206.8,133.6 184.7,133.6 184.7,117.1 146.4,48 171.9,48 195.8,91 
		219.6,48 	"/>
	<path class="st1" d="M326.4,90.9v42.7h-17.9l-1.7-6.5c-7.2,4.2-15.9,6.5-25.4,6.5c-22.7,0-39.1-12.1-43.7-31.2
		c-0.9-3.6-1.4-7.5-1.4-11.5c0-20.5,11.7-35.6,30.3-40.7c4.5-1.3,9.5-1.9,14.8-1.9c13.4,0,24.6,4.3,32.4,11.6
		C321.8,67.3,326.4,78.1,326.4,90.9z"/>
	<path class="st1" d="M414.1,66.2c4.2,6.6,6.5,14.8,6.5,24.1c0,9.4-2.3,17.7-6.6,24.3c-7.3,11.5-20.3,18.4-36.8,18.4
		c-12.6,0-23.3-4.1-30.9-11.3c-7.7-7.2-12.2-17.7-12.5-30.1l0-39l0-20.8h22.2v20.6c6.3-3.1,13.3-4.7,20.3-4.7h1
		C393.7,47.6,406.8,54.5,414.1,66.2L414.1,66.2z"/>
	<path class="st1" d="M511.6,67c4.7,6.8,7.5,14.9,7.5,23.5s-2.7,16.8-7.5,23.5c-8.1,11.6-21.9,19.2-37.6,19.2
		c-15.7,0-29.6-7.7-37.7-19.3c-4.7-6.7-7.4-14.8-7.4-23.5c0-8.7,2.8-16.9,7.6-23.7c8.1-11.5,21.9-19.1,37.5-19.1
		C489.7,47.8,503.5,55.4,511.6,67z"/>
	<path class="st1" d="M604.6,61.2c7.7,7.7,12.4,18,12.4,29.4c0,11.3-4.7,21.7-12.4,29.3c-8.2,8.3-19.9,13.4-32.8,13.4
		c-15.7,0-29.5-7.7-37.6-19.2c-4.7-6.8-7.5-14.8-7.5-23.5s2.8-16.8,7.5-23.5v0c8.1-11.6,21.9-19.2,37.6-19.2
		C584.8,47.8,596.4,52.9,604.6,61.2z"/>
	<path class="st1" d="M684.6,48H717l-4.9,4l-28.9,23.3c6.7,1.4,12.1,3.9,16.4,7.5c8,6.6,11.9,16.8,12.1,30.9v18.5h-22.2v-17.7
		c-0.5-11.1-1.5-17.4-21.2-17.4c-6.3,0-11,0.7-14.4,2.2l-3.9,3.2c-2,2.8-2.3,6.5-1.8,11.7v19.3h-23.6V31.8h23.6v43.5L684.6,48z"/>
	<path class="st1" d="M809.1,90.9v42.7h-18l-1.7-6.5c-7.2,4.2-15.9,6.5-25.4,6.5c-13.4,0-24.6-4.3-32.5-11.7
		c-8-7.5-12.6-18.2-12.6-31.1c0-5.1,0.7-9.8,2.1-14.2c1.2-3.9,2.9-7.4,5.1-10.6l0,0c4.2-6.2,10.2-11,17.5-14.1
		c5.9-2.5,12.8-3.8,20.3-3.8C790.9,48.2,809,65.4,809.1,90.9z"/>
	<polygon class="st0" points="245,48 216.9,98.9 206.8,117.1 206.8,133.6 184.7,133.6 184.7,117.1 146.4,48 171.9,48 195.8,91 
		219.6,48 	"/>
	<path class="st0" d="M313.8,59.9c-7.9-7.4-19.1-11.6-32.4-11.6c-5.3,0-10.2,0.7-14.8,1.9c-18.6,5.1-30.3,20.2-30.3,40.7
		c0,4.1,0.5,7.9,1.4,11.5c4.6,19,21,31.2,43.7,31.2c9.5,0,18.2-2.2,25.4-6.5l1.7,6.5h17.9V90.9C326.4,78.1,321.8,67.3,313.8,59.9z
		 M281,112.1c-15.7,0-25.1-8.5-25.1-22.8c0-14.3,9.3-22.8,25.1-22.8c15.8,0,25.1,8.5,25.1,22.8h0.1
		C306.2,103.6,296.7,112.1,281,112.1z"/>
	<path class="st0" d="M414.1,66.2L414.1,66.2c-7.3-11.6-20.3-18.6-36.8-18.6h-1c-7,0-14,1.6-20.3,4.7V31.8h-22.2l0,20.8l0,39
		c0.3,12.5,4.9,22.9,12.5,30.1c7.6,7.2,18.3,11.3,30.9,11.3c16.4,0,29.4-6.9,36.8-18.4c4.3-6.7,6.6-14.9,6.6-24.3
		C420.6,81,418.3,72.8,414.1,66.2z M377.6,113.3c-15.7,0-25.1-8.5-25.1-22.8c0-14.3,9.4-22.8,25.1-22.8c15.7,0,25.1,8.5,25.1,22.8
		C402.7,104.8,393.4,113.3,377.6,113.3z"/>
	<path class="st0" d="M764,48.2c-7.5,0-14.4,1.3-20.3,3.8c-7.3,3.1-13.3,7.9-17.5,14.1l0,0c-2.2,3.2-3.9,6.7-5.1,10.6
		c-1.4,4.4-2.1,9.1-2.1,14.2c0,12.8,4.6,23.6,12.6,31.1c7.9,7.4,19.1,11.7,32.5,11.7c9.5,0,18.2-2.2,25.4-6.5l1.7,6.5h18V90.9
		C809,65.4,790.9,48.2,764,48.2z M765,112.1c-15.8,0-25.2-8.5-25.2-22.8c0-14.3,9.3-22.8,25.2-22.8c15.8,0,25.1,8.5,25.1,22.8h0
		C790.1,103.6,780.7,112.1,765,112.1z"/>
	<path class="st0" d="M511.6,67c-8.1-11.6-21.9-19.2-37.7-19.2c-15.6,0-29.4,7.6-37.5,19.1c-4.8,6.8-7.6,14.9-7.6,23.7
		c0,8.7,2.7,16.7,7.4,23.5c8.1,11.6,22,19.3,37.7,19.3c15.7,0,29.6-7.7,37.6-19.2c4.7-6.8,7.5-14.8,7.5-23.5S516.4,73.7,511.6,67z
		 M474,114.4c-13.9,0-25.1-10.6-25.1-23.6c0-13.1,11.2-23.6,25.1-23.6c13.9,0,25.1,10.6,25.1,23.6
		C499.1,103.8,487.9,114.4,474,114.4z"/>
	<path class="st0" d="M712.1,52l-28.9,23.3c6.7,1.4,12.1,3.9,16.4,7.5c8,6.6,11.9,16.8,12.1,30.9v18.5h-22.2v-17.7
		c-0.5-11.1-1.5-17.4-21.2-17.4c-6.3,0-11,0.7-14.4,2.2l-3.9,3.2c-2,2.8-2.3,6.5-1.8,11.7v19.3h-23.6V31.8h23.6v43.5L684.6,48H717
		L712.1,52z"/>
	<path class="st0" d="M604.6,61.2c-8.2-8.2-19.9-13.4-32.8-13.4c-15.7,0-29.5,7.6-37.6,19.2v0c-4.7,6.8-7.5,14.8-7.5,23.5
		s2.8,16.8,7.5,23.5c8.1,11.6,21.9,19.2,37.6,19.2c12.9,0,24.6-5.2,32.8-13.4c7.7-7.6,12.4-18,12.4-29.3
		C617,79.2,612.3,68.8,604.6,61.2z M571.4,114.4c-13.8,0-25.1-10.6-25.1-23.6c0-13.1,11.2-23.6,25.1-23.6
		c13.9,0,25.1,10.6,25.1,23.6C596.5,103.8,585.3,114.4,571.4,114.4z"/>
</g>
</svg>
