<?xml version="1.0" encoding="utf-8"?>
<!-- Generator: Adobe Illustrator 25.0.0, SVG Export Plug-In . SVG Version: 6.00 Build 0)  -->
<svg version="1.1" id="Layer_1" xmlns="http://www.w3.org/2000/svg" xmlns:xlink="http://www.w3.org/1999/xlink" x="0px" y="0px"
	 viewBox="0 0 526.2 600" style="enable-background:new 0 0 526.2 600;" xml:space="preserve">
<style type="text/css">
	.st0{fill:#C22038;}
</style>
<g>
	<path id="XMLID_1_" class="st0" d="M378.3,0c-15.1,0.8-31.4,5.4-48.5,13.8c-17.1,8.6-31.2,19.1-42.4,31.9
		c-22.4,25.2-34.9,56.1-34.9,84.9c0,3.9,0.2,7.7,0.6,11.3c34.7,2.8,66.6-14.9,92.9-45.9C367.9,70,379,42.1,379,12
		C379,8.1,378.6,4,378.3,0z"/>
	<path class="st0" d="M526.2,350.4c-2.4,26.7-8.4,54.1-18.1,82.1c-0.8,2.5-1.7,4.8-2.6,7.3c-3.6,9.7-7.1,18.9-10.9,27.8
		c-9,21-19.9,40.3-32.2,58c-16.9,24.2-30.9,40.9-41.6,50.3c-16.6,15.3-34.4,23-53.4,23.5c-13.6,0-30.1-4-49.3-11.8
		c-19.2-7.9-37-11.7-53.1-11.7c-16.9,0-35.2,3.9-54.6,11.7c-19.6,7.9-35.2,12-47.2,12.3c-18.2,0.8-36.5-7.3-54.6-24.2
		c-9.1-7.9-19.8-20.1-32.2-36.7c17.9-7.9,38.1-15.8,60.6-23.1c81.4-26.4,141.9-29.4,178.3-27.3c18.9,1.1,32.9-17.2,27.1-35.2
		c-1.7-5.1-4.7-9.5-8.6-12.8c-4-3.3-8.8-5.6-14.1-6.3c-30.4-4.5-99.4-8-201.1,25c-28.8,9.3-53.6,19.5-74.9,29.6
		c-8.2-15.3-15.5-31.7-22-49.2c-0.9-2.4-1.8-4.8-2.6-7.3C6.4,395.1,0,358.9,0,323.7c0-40.3,8.7-75,26.2-103.9
		c3.6-6.2,7.6-12.1,11.9-17.6c11.8-15.2,26-27.8,42.7-37.7c22.9-13.5,47.4-20.4,73.8-20.9c14.5,0,33.5,4.4,57.2,13.3
		c23.5,8.9,38.6,13.3,45.4,13.3c4.9,0,21.7-5.3,50.3-15.8c27-9.7,49.7-13.6,68.4-12.2c50.5,4.1,88.5,24,113.6,59.8c0,0-0.1,0-0.1,0
		c4.3,5.5,8.3,11.3,11.9,17.5c12.1,20.1,20.1,43.1,23.7,68.8c-30.9-10.5-71-20.3-121.6-25.5c-106.4-11-173.1,6.9-201.9,17.7
		c-5,1.9-9.3,5.1-12.5,9.2c-3.1,4.1-5.2,9-5.7,14.3c-1.9,18.8,15.6,33.8,33.9,28.8c35.2-9.7,95-19.4,180.1-10.7
		C452,328,494.5,338.9,526.2,350.4z"/>
</g>
</svg>
