<?xml version="1.0" encoding="utf-8"?>
<!-- Generator: Adobe Illustrator 25.0.0, SVG Export Plug-In . SVG Version: 6.00 Build 0)  -->
<svg version="1.1" id="Layer_1" xmlns="http://www.w3.org/2000/svg" xmlns:xlink="http://www.w3.org/1999/xlink" x="0px" y="0px"
	 viewBox="0 0 1410 224.9" style="enable-background:new 0 0 1410 224.9;" xml:space="preserve">
<style type="text/css">
	.st0{fill:#C22038;}
	.st1{fill:#28282C;}
</style>
<g>
	<path class="st0" d="M745.7,36c8.2-9.7,12.3-20.2,12.3-31.5l0,0c0-1.5-0.1-3-0.2-4.5c-5.7,0.3-11.8,2-18.2,5.2
		c-6.4,3.2-11.7,7.2-15.9,11.9c-8.3,9.4-13,21-13,31.8c0,1.5,0.1,2.9,0.3,4.3C723.9,54.2,735.9,47.5,745.7,36z"/>
	<g>
		<path class="st0" d="M748.1,113.8c-28.8-3.5-48.8,1.4-58.6,4.9c-3.4,1.2-6.4-2.7-5.8-7.8v0c0.4-3,2-5.6,4-6.5
			c7.9-3.3,29.2-10.3,62.3-6.3c28.1,3.4,46.1,12.5,55.1,18.3c-0.6-13-3.9-24.4-9.7-34.1c-5.1-8.8-11.9-15.7-20.5-20.7
			c-8.5-5.1-17.8-7.6-27.7-7.8c-5.4,0-12.6,1.7-21.4,5c-8.8,3.3-14.5,5-17,5c-2.5,0-8.2-1.7-17-5c-8.9-3.3-16-5-21.4-5
			c-9.9,0.2-19.2,2.7-27.7,7.8c-8.5,5.1-15.4,12-20.5,20.7c-6.5,10.9-9.8,23.9-9.8,39c0,13.2,2.4,26.8,7.2,40.8
			c2.8,8,6,15.5,9.8,22.3c7.7-5.7,26-17,56.9-21.8c32.9-5.1,54.4,1.1,62.4,4.1c2.1,0.8,3.8,3.3,4.2,6.3v0c0.8,5-2,9-5.5,7.9
			c-10-3.1-30-7.3-58.7-2.9c-25.4,3.9-42.4,12.3-51.8,18.3c6.5,9.2,11.9,15.7,16.3,19.5c6.8,6.3,13.6,9.3,20.5,9.1
			c4.5-0.2,10.4-1.7,17.7-4.7c6.1-2.5,11.9-3.9,17.4-4.3c5.5,0.4,11.3,1.8,17.4,4.3c7.3,3,13.2,4.5,17.7,4.7
			c6.8,0.3,13.7-2.7,20.5-9.1c4.3-3.8,9.8-10.3,16.3-19.5c7-9.8,12.7-21.2,17.2-34.2c3.4-10,5.6-19.7,6.6-29.2
			c-0.3-0.1-0.5-0.2-0.7-0.4C795.2,126.8,777,117.3,748.1,113.8z"/>
	</g>
</g>
<g>
	<path class="st1" d="M150,56.3l-52.9,94c-0.7,1.1-2.1,1.4-3.2,0.7c-0.3-0.2-0.5-0.4-0.7-0.7l-52.8-94H0l77.7,138.2v30.4h35v-30.4
		l77.6-138.2H150z"/>
	<path class="st1" d="M296.8,56.1c-53.4,0-89.4,33.9-89.4,84.4s35.9,84.4,89.4,84.4c22.3,0,42.3-6,57.7-17.5l4.6,17.5h27v-84.4
		C386.1,90,350.2,56.1,296.8,56.1z M350.9,139c0,30.3-19.9,48.4-53.3,48.4s-53.3-18.1-53.3-48.4s19.8-48.4,53.3-48.4
		S350.8,108.7,350.9,139L350.9,139z"/>
	<path class="st1" d="M446.5,70.6c15.6-9.8,33.6-14.8,51.9-14.4c52,0,87,33.9,87,84.4s-34.9,84.4-87,84.4c-51,0-85.7-32.8-86.9-81.8
		l-0.1-120.5h35.1V70.6z M499.2,188.8c33.4,0,53.3-18.1,53.3-48.4S532.6,92,499.2,92s-53.3,18.1-53.3,48.4S465.8,188.8,499.2,188.8z
		"/>
</g>
<g>
	<path class="st1" d="M1320.7,56.1c-53.4,0-89.4,33.9-89.4,84.4s35.9,84.4,89.4,84.4c22.3,0,42.3-6,57.7-17.5l4.6,17.5h27v-84.4
		C1409.9,90,1374,56.1,1320.7,56.1z M1374.7,139c0,30.3-19.9,48.4-53.3,48.4c-33.4,0-53.3-18.1-53.3-48.4s19.8-48.4,53.3-48.4
		C1354.9,90.6,1374.7,108.7,1374.7,139L1374.7,139z"/>
	<g>
		<path class="st1" d="M929.5,55.9c-49.4,0-89.5,37.8-89.5,84.5s40.1,84.5,89.5,84.5s89.5-37.8,89.5-84.5S978.9,55.9,929.5,55.9z
			 M929.5,190.1c-29,0-52.5-22.2-52.5-49.6c0-27.4,23.5-49.6,52.5-49.6s52.5,22.2,52.5,49.6C982,167.9,958.4,190.1,929.5,190.1z"/>
	</g>
	<path class="st1" d="M1141.6,112.8l69.8-56.3h-49.7l-86.4,65l0,0l0,0V20.3h-36.6v169.3l0,0c0,0.4,0,0.9,0,1.3v33.6h36.2v-33.6
		c0-11.8,0.9-21.4,6.5-29.2l9.6-7.9c7.4-3.5,17.9-5.7,34-5.7c46.2,0,50.2,17.4,50.2,43.2v33.6h36.2v-33.6
		C1211,142.9,1188.3,117.6,1141.6,112.8z"/>
</g>
</svg>
